<?xml version="1.0" encoding="utf-8"?>
<!-- Generator: Adobe Illustrator 18.1.1, SVG Export Plug-In . SVG Version: 6.00 Build 0)  -->
<svg version="1.1" id="Layer_1" xmlns="http://www.w3.org/2000/svg" xmlns:xlink="http://www.w3.org/1999/xlink" x="0px" y="0px"
	 viewBox="0 0 1280 299.2" enable-background="new 0 0 1280 299.2" xml:space="preserve">
<line fill="none" stroke="#000000" stroke-width="3" stroke-miterlimit="10" x1="50" y1="58.1" x2="356" y2="58.1"/>
<line fill="none" stroke="#000000" stroke-width="3" stroke-miterlimit="10" x1="50" y1="150.1" x2="356" y2="150.1"/>
<line fill="none" stroke="#000000" stroke-width="3" stroke-miterlimit="10" x1="50" y1="243.1" x2="356" y2="243.1"/>
<ellipse transform="matrix(-0.9808 0.195 -0.195 -0.9808 338.6141 449.4275)" cx="147.2" cy="241.4" rx="52.2" ry="33.8"/>
<ellipse transform="matrix(-0.9808 0.195 -0.195 -0.9808 320.5317 265.7447)" cx="147.2" cy="148.6" rx="52.2" ry="33.8"/>
<ellipse transform="matrix(-0.9808 0.195 -0.195 -0.9808 302.4493 82.0619)" cx="147.2" cy="55.9" rx="52.2" ry="33.8"/>
<g>
	<path d="M450,107.6h27.6v-23l18.3-5.1v28.1h61.9v15.5h-61.9v54.7c0,11.3,2.7,19.6,8.2,25c5.5,5.4,13.3,8.1,23.5,8.1
		c6.9,0,13-1.3,18.1-3.9c5.2-2.6,9.8-5.5,14-8.6l6,13.7c-5.4,4.3-11.9,7.8-19.4,10.4c-7.5,2.6-15.2,3.9-23.1,3.9
		c-6.2,0-12-0.9-17.5-2.7c-5.5-1.8-10.3-4.5-14.5-8.2c-4.2-3.7-7.5-8.5-10-14.3c-2.5-5.8-3.7-12.7-3.7-20.7v-57.5H450V107.6z"/>
	<path d="M615.7,223.5v-15.5H647v-84.8h-31.3v-15.5h43.4l3.7,15.1h1.2c5.3-4.8,11.1-8.9,17.6-12.3c6.5-3.4,14.2-5.1,23.2-5.1
		c5.3,0,9.5,1,12.6,3c3.2,2,5.6,4.9,7.4,8.8c1.8,3.9,3,8.5,3.6,14c0.6,5.5,0.9,11.7,0.9,18.7l-16.2,0.2c0-9.8-1-17-2.9-21.6
		c-1.9-4.6-5.4-6.9-10.5-6.9c-4.8,0-9.1,0.7-13,2.1c-3.9,1.4-7.2,3.1-10.1,5.1c-2.9,2-5.3,4-7.3,6c-2,2-3.5,3.7-4.4,5.1v68.2h44.5
		v15.5H615.7z"/>
	<path d="M782.4,223.5v-15.5h40.3v-84.8h-40.3v-15.5H841v100.4h39.4v15.5H782.4z M816.2,74.6c0-4.2,1.4-7.8,4.2-10.8
		c2.8-3,6.3-4.5,10.7-4.5c4.5,0,8.2,1.5,11.2,4.5c3,3,4.5,6.6,4.5,10.8c0,4-1.5,7.4-4.5,10.2c-3,2.8-6.8,4.2-11.2,4.2
		c-4.3,0-7.9-1.4-10.7-4.2C817.6,82.1,816.2,78.7,816.2,74.6z"/>
	<path d="M940.7,116.6c6.6-3.9,14.1-6.6,22.5-8.3c8.3-1.7,16.5-2.6,24.6-2.6c7.9,0,14.3,1.2,19.4,3.7c5,2.5,9,5.7,11.8,9.6
		c2.9,3.9,4.8,8.4,5.8,13.4c1,5,1.5,10.1,1.5,15.2c0,5.9-0.2,12.1-0.5,18.8c-0.3,6.6-0.5,13.3-0.7,19.9c0,7.7,0.5,15.1,1.4,22h15.5
		v15.1h-30.6l-2.1-17.4h-1.2c-0.9,1.4-2.3,3.2-4.2,5.3c-1.9,2.2-4.3,4.3-7.3,6.4c-3,2.1-6.7,3.9-11,5.4c-4.3,1.5-9.5,2.3-15.3,2.3
		c-11.5,0-20.5-2.9-27.2-8.8c-6.7-5.9-10-13.9-10-24.1c0-7.9,1.7-14.4,5.2-19.7c3.5-5.3,8.5-9.3,15-12.1c6.5-2.8,14.4-4.4,23.6-4.9
		s19.6,0.2,31,1.9c0.8-7.1,0.9-13,0.3-17.7c-0.5-4.7-1.8-8.5-3.7-11.2c-1.9-2.8-4.7-4.8-8.1-5.9c-3.5-1.2-7.8-1.7-12.9-1.7
		c-7,0-13.6,1-20,2.9c-6.4,1.9-12,3.9-17,5.9L940.7,116.6z M975,210c4.3,0,8.3-0.7,12.1-2.1c3.7-1.4,7-3.2,9.7-5.3
		c2.8-2.2,5.1-4.5,7-7.1c1.9-2.5,3.2-5,4.2-7.3V172c-8-1.4-15.5-2.1-22.3-2.1c-6.8,0-12.7,0.7-17.6,2.2c-4.9,1.5-8.8,3.7-11.6,6.8
		c-2.8,3.1-4.2,7.1-4.2,12.1c0,5.1,1.7,9.5,5.2,13.3C961,208.1,966.8,210,975,210z"/>
	<path d="M1154,61.2h37.8v122.6c0,1.4,0.1,3.1,0.2,5.2c0.2,2.1,0.3,4.3,0.6,6.6c0.2,2.3,0.5,4.6,0.8,6.8c0.3,2.2,0.6,4.2,0.9,5.9
		h15.5v15.1h-31.1l-2.3-17.9h-0.9c-3.4,5.9-8.4,10.8-15.1,14.7c-6.7,3.9-14.5,5.9-23.2,5.9c-17.4,0-30.3-4.9-38.5-14.7
		c-8.2-9.8-12.4-25.1-12.4-45.8c0-9.7,1.4-18.4,4.2-25.8c2.8-7.5,6.7-13.8,11.9-18.8c5.2-5,11.4-8.8,18.6-11.5
		c7.2-2.6,15.3-3.9,24.3-3.9c3.2,0,6.1,0.1,8.7,0.2c2.5,0.2,4.9,0.4,7.1,0.7c2.2,0.3,4.2,0.7,6.1,1.3c1.9,0.5,4,1.1,6.4,1.7V76.7
		H1154V61.2z M1140.2,210.7c9.4,0,16.8-2.4,22.2-7.3c5.4-4.9,9.1-12.2,11.1-21.9v-53.8c-3.4-2.3-7.2-4-11.4-5.1
		c-4.2-1.1-9.8-1.6-16.7-1.6c-12.3,0-22,3.6-29.1,10.8c-7.1,7.2-10.6,18.5-10.6,34c0,6.3,0.6,12.3,1.7,17.7
		c1.2,5.5,3.1,10.2,5.8,14.3c2.7,4,6.3,7.2,10.7,9.5C1128.3,209.6,1133.7,210.7,1140.2,210.7z"/>
</g>
</svg>
