<?xml version="1.0" encoding="utf-8"?>
<!-- Generator: Adobe Illustrator 18.1.1, SVG Export Plug-In . SVG Version: 6.00 Build 0)  -->
<svg version="1.1" id="Layer_1" xmlns="http://www.w3.org/2000/svg" xmlns:xlink="http://www.w3.org/1999/xlink" x="0px" y="0px"
	 viewBox="0 0 1280 800" enable-background="new 0 0 1280 800" xml:space="preserve">
<line fill="none" stroke="#000000" stroke-width="3" stroke-miterlimit="10" x1="303" y1="347.5" x2="478" y2="347.5"/>
<line fill="none" stroke="#000000" stroke-width="3" stroke-miterlimit="10" x1="303" y1="400.5" x2="478" y2="400.5"/>
<line fill="none" stroke="#000000" stroke-width="3" stroke-miterlimit="10" x1="303" y1="453.5" x2="478" y2="453.5"/>
<ellipse transform="matrix(-0.9808 0.195 -0.195 -0.9808 798.8517 826.1643)" cx="358.8" cy="452.4" rx="29.8" ry="19.3"/>
<ellipse transform="matrix(-0.9808 0.195 -0.195 -0.9808 788.5286 721.3012)" cx="358.8" cy="399.5" rx="29.8" ry="19.3"/>
<ellipse transform="matrix(-0.9808 0.195 -0.195 -0.9808 778.2056 616.438)" cx="358.8" cy="346.5" rx="29.8" ry="19.3"/>
<g>
	<path d="M531.6,376h15.8v-13.1l10.5-2.9v16h35.3v8.9h-35.3v31.2c0,6.4,1.6,11.2,4.7,14.3c3.1,3.1,7.6,4.6,13.4,4.6
		c4,0,7.4-0.7,10.4-2.3c2.9-1.5,5.6-3.1,8-4.9l3.4,7.8c-3.1,2.5-6.8,4.5-11.1,6c-4.3,1.5-8.7,2.3-13.2,2.3c-3.5,0-6.9-0.5-10-1.5
		c-3.1-1-5.9-2.6-8.3-4.7c-2.4-2.1-4.3-4.8-5.7-8.1c-1.4-3.3-2.1-7.3-2.1-11.8v-32.8h-15.8V376z"/>
	<path d="M626.2,442.2v-8.9h17.9v-48.4h-17.9V376H651l2.1,8.6h0.7c3-2.7,6.4-5.1,10.1-7c3.7-1.9,8.1-2.9,13.2-2.9
		c3,0,5.4,0.6,7.2,1.7c1.8,1.1,3.2,2.8,4.2,5c1,2.2,1.7,4.9,2.1,8c0.4,3.1,0.5,6.7,0.5,10.7l-9.3,0.1c0-5.6-0.6-9.7-1.7-12.3
		c-1.1-2.6-3.1-3.9-6-3.9c-2.7,0-5.2,0.4-7.4,1.2c-2.2,0.8-4.1,1.8-5.8,2.9c-1.6,1.1-3,2.3-4.2,3.4c-1.1,1.1-2,2.1-2.5,2.9v38.9
		h25.4v8.9H626.2z"/>
	<path d="M721.4,442.2v-8.9h23v-48.4h-23V376h33.5v57.3h22.5v8.9H721.4z M740.7,357.2c0-2.4,0.8-4.4,2.4-6.2
		c1.6-1.7,3.6-2.6,6.1-2.6c2.6,0,4.7,0.9,6.4,2.6c1.7,1.7,2.6,3.8,2.6,6.2c0,2.3-0.9,4.2-2.6,5.8c-1.7,1.6-3.9,2.4-6.4,2.4
		c-2.5,0-4.5-0.8-6.1-2.4C741.5,361.4,740.7,359.5,740.7,357.2z"/>
	<path d="M811.8,381.2c3.8-2.2,8.1-3.8,12.8-4.8c4.8-1,9.4-1.5,14-1.5c4.5,0,8.2,0.7,11.1,2.1c2.9,1.4,5.1,3.2,6.8,5.5
		c1.6,2.3,2.7,4.8,3.3,7.7c0.6,2.9,0.9,5.8,0.9,8.7c0,3.4-0.1,6.9-0.3,10.7c-0.2,3.8-0.3,7.6-0.4,11.4c0,4.4,0.3,8.6,0.8,12.6h8.9
		v8.6h-17.5l-1.2-9.9h-0.7c-0.5,0.8-1.3,1.8-2.4,3c-1.1,1.2-2.5,2.4-4.2,3.6s-3.8,2.2-6.3,3.1c-2.5,0.9-5.4,1.3-8.8,1.3
		c-6.5,0-11.7-1.7-15.5-5c-3.8-3.4-5.7-7.9-5.7-13.8c0-4.5,1-8.2,3-11.2c2-3,4.8-5.3,8.6-6.9c3.7-1.6,8.2-2.5,13.5-2.8
		c5.3-0.3,11.2,0.1,17.7,1.1c0.4-4.1,0.5-7.4,0.2-10.1c-0.3-2.7-1-4.8-2.1-6.4c-1.1-1.6-2.7-2.7-4.6-3.4c-2-0.7-4.5-1-7.4-1
		c-4,0-7.8,0.6-11.4,1.7c-3.6,1.1-6.9,2.2-9.7,3.4L811.8,381.2z M831.4,434.5c2.5,0,4.8-0.4,6.9-1.2c2.1-0.8,4-1.8,5.6-3
		c1.6-1.2,2.9-2.6,4-4c1.1-1.5,1.9-2.8,2.4-4.2v-9.3c-4.6-0.8-8.8-1.2-12.7-1.2c-3.9,0-7.2,0.4-10.1,1.3c-2.8,0.8-5,2.1-6.6,3.9
		c-1.6,1.8-2.4,4.1-2.4,6.9c0,2.9,1,5.4,3,7.6C823.4,433.4,826.7,434.5,831.4,434.5z"/>
	<path d="M933.5,349.5h21.6v70c0,0.8,0,1.8,0.1,3c0.1,1.2,0.2,2.4,0.3,3.8c0.1,1.3,0.3,2.6,0.5,3.9c0.2,1.3,0.4,2.4,0.5,3.4h8.9v8.6
		h-17.7l-1.3-10.2h-0.5c-1.9,3.4-4.8,6.2-8.6,8.4s-8.2,3.4-13.3,3.4c-9.9,0-17.3-2.8-22-8.4c-4.7-5.6-7.1-14.3-7.1-26.1
		c0-5.6,0.8-10.5,2.4-14.8c1.6-4.3,3.8-7.9,6.8-10.7c2.9-2.9,6.5-5,10.6-6.6c4.1-1.5,8.8-2.3,13.9-2.3c1.8,0,3.5,0,4.9,0.1
		c1.5,0.1,2.8,0.2,4,0.4c1.2,0.2,2.4,0.4,3.5,0.7c1.1,0.3,2.3,0.6,3.6,1v-18.8h-11.1V349.5z M925.7,434.9c5.4,0,9.6-1.4,12.7-4.2
		s5.2-6.9,6.3-12.5v-30.7c-1.9-1.3-4.1-2.3-6.5-2.9c-2.4-0.6-5.6-0.9-9.6-0.9c-7,0-12.6,2.1-16.6,6.2c-4,4.1-6.1,10.6-6.1,19.4
		c0,3.6,0.3,7,1,10.1c0.7,3.1,1.8,5.8,3.3,8.1c1.5,2.3,3.6,4.1,6.1,5.4C918.9,434.2,922,434.9,925.7,434.9z"/>
</g>
</svg>
